<?xml version="1.0" standalone="no"?>
<!DOCTYPE svg PUBLIC "-//W3C//DTD SVG 20010904//EN"
 "http://www.w3.org/TR/2001/REC-SVG-20010904/DTD/svg10.dtd">
<svg version="1.0" xmlns="http://www.w3.org/2000/svg"
 width="460.000000pt" height="460.000000pt" viewBox="0 0 460.000000 460.000000"
 preserveAspectRatio="xMidYMid meet">
<metadata>
Created by potrace 1.11, written by Peter Selinger 2001-2013
</metadata>
<g transform="translate(0.000000,460.000000) scale(0.100000,-0.100000)"
fill="#000000" stroke="none">
<path d="M2269 4336 c-2 -2 -37 -9 -77 -14 -40 -6 -96 -19 -125 -30 -80 -30
-120 -43 -147 -50 -14 -3 -41 -18 -60 -33 -19 -15 -47 -31 -62 -34 -29 -7
-228 -206 -229 -228 0 -7 -18 -37 -39 -67 -21 -30 -48 -75 -60 -100 -11 -25
-26 -54 -32 -65 -63 -111 -109 -212 -104 -229 3 -12 -8 -57 -24 -102 -50 -134
-64 -439 -35 -714 31 -286 47 -386 76 -472 33 -99 53 -133 123 -220 53 -65 90
-149 100 -225 4 -26 3 -105 -3 -175 -11 -150 -29 -188 -96 -208 -50 -15 -145
-61 -145 -70 0 -4 -25 -23 -56 -41 -30 -19 -90 -56 -132 -84 -106 -68 -103
-66 -237 -133 -66 -32 -160 -71 -210 -86 -171 -52 -242 -82 -332 -140 -68 -44
-88 -59 -147 -106 -23 -20 -192 -149 -214 -166 -2 -1 -2 -10 0 -19 2 -13 15
-8 63 26 33 24 64 49 68 56 4 7 15 13 23 13 8 0 17 7 20 15 3 8 20 23 37 34
18 12 52 36 77 56 25 19 55 39 67 44 11 6 24 15 28 21 14 23 186 97 290 125
28 7 80 25 117 39 70 27 279 133 288 146 3 4 38 27 78 51 89 54 135 83 205
132 59 40 113 54 68 17 -13 -11 -31 -20 -40 -20 -9 0 -32 -13 -51 -30 -19 -16
-40 -29 -47 -30 -6 0 -18 -8 -25 -17 -7 -10 -29 -27 -48 -37 -19 -11 -53 -31
-74 -45 -21 -14 -46 -30 -55 -36 -9 -5 -29 -19 -45 -29 -88 -59 -266 -140
-371 -170 -188 -54 -296 -112 -479 -260 -57 -46 -114 -90 -127 -98 -13 -7 -34
-22 -46 -32 -23 -19 -23 -23 -23 -258 l0 -238 2300 0 2300 0 -2 302 -3 303
-30 15 c-38 20 -167 105 -225 149 -25 18 -65 42 -90 52 -25 11 -54 24 -64 30
-10 6 -42 19 -70 29 -28 10 -82 30 -121 45 -38 14 -96 35 -127 45 -53 18 -179
81 -318 159 -89 50 -228 117 -332 159 -109 45 -209 121 -227 174 -6 17 -11 67
-11 112 0 77 3 86 50 180 28 54 50 111 50 125 0 14 22 59 49 99 27 40 59 91
70 115 22 46 66 243 77 347 3 36 15 103 25 149 11 46 24 161 30 255 5 94 12
203 14 243 6 93 -27 347 -47 371 -17 19 -30 75 -32 142 -1 47 -43 147 -71 170
-8 7 -15 18 -15 24 0 17 -108 175 -168 247 -108 130 -149 166 -230 202 -133
60 -154 66 -257 76 -156 16 -251 22 -256 17z m271 -49 c63 -9 125 -25 155 -40
28 -13 78 -37 112 -53 34 -16 64 -37 66 -47 3 -10 15 -21 26 -24 12 -3 21 -9
21 -14 0 -7 94 -126 110 -139 9 -7 82 -111 98 -138 21 -38 -6 -24 -32 16 -13
21 -37 52 -53 68 -15 17 -61 67 -102 112 -83 91 -144 126 -301 174 -81 25
-241 49 -325 48 -56 0 -198 -27 -264 -49 -31 -10 -81 -27 -111 -36 -30 -10
-74 -31 -98 -47 -24 -15 -57 -35 -75 -45 -68 -35 -173 -156 -258 -298 -18 -30
-25 -36 -27 -22 -2 10 8 33 22 52 14 18 26 37 26 40 0 4 11 20 25 37 14 16 25
36 25 43 0 25 185 199 243 228 30 15 60 34 67 42 7 8 30 18 52 21 21 4 41 11
44 15 3 5 11 9 19 9 8 0 26 5 42 12 15 7 73 22 128 34 113 26 195 26 365 1z
m-1113 -665 c-7 -15 -22 -41 -35 -57 l-22 -30 10 29 c14 38 42 86 52 86 4 0 2
-13 -5 -28z m1003 -46 c108 -14 206 -44 273 -83 21 -13 40 -23 43 -23 12 0
113 -81 141 -114 30 -33 50 -90 41 -117 -6 -17 -76 -41 -134 -46 -39 -4 -55
-1 -68 12 -13 13 -29 16 -70 13 -79 -7 -122 -46 -140 -128 l-5 -25 200 3 201
3 36 -28 c104 -78 117 -122 127 -428 l7 -220 -26 -59 c-14 -32 -26 -66 -26
-75 0 -10 -11 -39 -23 -67 -13 -27 -39 -82 -58 -122 -26 -57 -44 -81 -79 -106
-44 -31 -120 -56 -120 -39 -2 52 -23 161 -34 178 -44 67 -268 120 -332 79 -21
-15 -30 -15 -63 -4 -44 14 -123 6 -144 -14 -19 -20 -68 -42 -105 -49 -18 -4
-46 -17 -63 -29 -32 -24 -99 -117 -99 -140 -1 -7 -16 -31 -35 -53 l-35 -40
-54 29 c-35 19 -60 41 -72 64 -11 20 -28 51 -38 71 -31 59 -85 190 -116 281
-65 194 -67 432 -4 550 13 24 24 48 24 53 0 4 16 30 36 59 85 121 128 136 335
119 139 -11 169 -16 169 -32 0 -5 7 -9 15 -9 26 0 16 20 -19 41 -29 17 -36 28
-42 64 -3 24 -14 51 -24 60 -28 25 -153 21 -272 -8 -53 -13 -102 -20 -109 -16
-10 6 -10 23 1 81 13 70 16 75 76 135 48 46 87 72 161 108 109 51 145 62 253
74 107 12 152 11 270 -3z m-1070 -76 c-6 -12 -14 -19 -17 -17 -2 3 1 15 7 27
6 12 14 19 17 17 2 -3 -1 -15 -7 -27z m1153 -1439 c6 -6 -6 -14 -34 -21 -24
-7 -57 -16 -73 -21 -16 -5 -50 -9 -75 -9 -26 0 -52 -5 -57 -10 -6 -6 -34 -11
-63 -11 -58 -2 -88 14 -50 26 13 4 31 13 39 20 37 32 286 53 313 26z m-93
-128 c37 -47 21 -56 -120 -70 -91 -10 -156 0 -177 27 -19 24 -24 6 -8 -27 19
-37 28 -41 113 -49 116 -10 260 10 329 45 33 16 63 37 66 46 4 8 18 15 32 15
25 0 25 -1 25 -76 0 -72 -2 -78 -30 -104 -16 -15 -30 -32 -30 -36 0 -13 -63
-74 -75 -74 -7 0 -29 -20 -51 -45 -47 -53 -74 -59 -74 -15 0 17 9 39 20 50 19
19 19 20 1 20 -12 0 -23 -12 -31 -32 -28 -78 -40 -98 -58 -98 -10 0 -27 -7
-38 -15 -10 -8 -31 -15 -46 -15 -23 0 -27 5 -33 39 -8 50 -27 66 -81 67 -25 1
-55 10 -70 20 -15 11 -39 26 -53 35 -14 8 -41 38 -59 65 -29 43 -33 55 -28 93
4 25 13 55 21 67 8 13 15 30 15 39 0 9 9 15 23 14 22 -1 116 13 197 30 25 5
80 9 122 10 72 1 78 -1 98 -26z m-729 -485 c27 -28 49 -55 49 -60 0 -4 5 -8
11 -8 6 0 27 -13 46 -30 18 -16 41 -30 49 -30 8 0 33 -9 56 -20 56 -27 143
-35 209 -19 53 12 317 22 352 12 11 -3 17 -14 17 -34 0 -43 20 -45 113 -15 45
15 105 30 132 33 28 3 52 9 55 12 3 3 26 23 51 43 43 35 48 36 62 20 19 -21
37 -86 37 -132 0 -19 11 -59 25 -88 14 -30 25 -63 25 -73 0 -10 7 -19 15 -19
12 0 15 13 15 60 0 33 2 60 4 60 2 0 20 -7 39 -15 31 -13 37 -20 43 -60 11
-78 -20 -299 -57 -395 -30 -80 -89 -201 -105 -218 -8 -7 -14 -18 -14 -23 0
-33 -152 -187 -230 -234 -125 -75 -285 -135 -357 -135 -46 0 -64 7 -218 89
-82 44 -213 155 -285 241 -173 206 -276 428 -307 660 -18 139 -13 203 15 198
13 -2 17 -14 17 -43 1 -77 5 -106 14 -101 4 3 11 81 13 173 3 93 9 176 13 186
13 30 45 18 96 -35z m1547 -203 c30 -14 58 -25 63 -25 5 0 27 -11 49 -25 22
-14 44 -25 48 -25 5 0 48 -22 96 -50 48 -27 91 -50 95 -50 4 0 16 -9 26 -20
10 -11 23 -20 30 -20 7 0 34 -12 61 -26 27 -15 66 -32 87 -40 20 -7 52 -19 70
-27 17 -8 48 -19 67 -26 117 -42 191 -71 235 -94 66 -34 31 -35 -54 -1 -36 15
-106 41 -156 59 -164 59 -196 73 -293 129 -189 106 -393 211 -433 221 -13 3
-35 15 -49 25 -36 28 -6 25 58 -5z"/>
<path d="M2084 3194 c3 -27 5 -55 5 -61 1 -7 8 -13 16 -13 12 0 13 9 9 48 -4
26 -13 53 -20 61 -11 12 -13 7 -10 -35z"/>
<path d="M2180 3015 c0 -7 5 -17 10 -20 6 -3 10 -21 11 -38 0 -18 7 -54 15
-82 l13 -50 -5 84 c-3 46 -8 89 -11 96 -7 19 -33 27 -33 10z"/>
<path d="M2458 2998 c-2 -25 -9 -34 -28 -38 -46 -11 -56 -46 -42 -157 7 -54
12 -113 12 -131 0 -31 23 -90 40 -102 4 -3 20 -25 35 -50 15 -25 31 -47 35
-50 6 -4 21 -53 37 -117 5 -21 3 -22 -65 -20 -59 2 -75 -2 -101 -20 -34 -26
-83 -30 -101 -8 -16 19 -89 29 -122 16 -42 -16 -35 -34 10 -26 27 4 50 0 86
-16 60 -26 112 -22 164 15 30 21 45 24 75 19 43 -7 44 -26 2 -33 -16 -3 -30
-11 -33 -18 -3 -9 3 -11 25 -6 47 12 77 25 85 37 23 36 -4 187 -33 187 -5 0
-9 7 -9 15 0 17 -18 51 -37 72 -7 8 -15 30 -18 51 -3 20 -13 64 -22 97 -8 33
-17 92 -20 131 -4 64 -2 75 21 109 26 38 34 75 17 75 -6 0 -11 -14 -13 -32z"/>
<path d="M2715 2950 c-24 -26 -13 -37 17 -16 12 9 42 16 65 16 24 0 43 5 43
10 0 6 -24 10 -53 10 -41 0 -58 -5 -72 -20z"/>
<path d="M2880 2891 c0 -10 7 -24 15 -31 8 -7 15 -23 15 -36 0 -22 -4 -24 -47
-24 -27 1 -77 7 -113 15 -36 8 -102 14 -148 15 -46 0 -92 5 -103 10 -14 8 -19
7 -19 -3 0 -17 42 -37 76 -37 36 0 170 -29 234 -50 60 -20 232 -30 237 -13 3
9 -101 152 -121 165 -18 12 -26 9 -26 -11z"/>
<path d="M1905 2814 c-27 -8 -88 -17 -135 -20 -83 -6 -126 -23 -105 -42 6 -5
36 -15 68 -22 62 -14 109 -8 182 25 37 16 128 42 178 50 20 3 37 10 37 15 0
15 -168 10 -225 -6z"/>
<path d="M2125 2507 c-8 -18 -24 -48 -35 -67 -13 -23 -20 -53 -20 -88 0 -48 4
-58 34 -88 28 -28 42 -34 75 -34 54 0 52 15 -4 29 -48 12 -59 26 -69 86 -8 45
22 128 49 139 19 7 19 42 0 50 -10 3 -20 -5 -30 -27z"/>
<path d="M1960 1216 c0 -8 61 -12 66 -4 3 4 -11 8 -30 8 -20 0 -36 -2 -36 -4z"/>
</g>
</svg>
